<?xml version="1.0" encoding="UTF-8" standalone="no"?>
<!-- Created with Inkscape (http://www.inkscape.org/) -->

<svg
   xmlns:dc="http://purl.org/dc/elements/1.1/"
   xmlns:cc="http://creativecommons.org/ns#"
   xmlns:rdf="http://www.w3.org/1999/02/22-rdf-syntax-ns#"
   xmlns:svg="http://www.w3.org/2000/svg"
   xmlns="http://www.w3.org/2000/svg"
   xmlns:sodipodi="http://sodipodi.sourceforge.net/DTD/sodipodi-0.dtd"
   xmlns:inkscape="http://www.inkscape.org/namespaces/inkscape"
   width="793.70081"
   height="100"
   viewBox="0 0 210 26.458334"
   version="1.1"
   id="svg8"
   inkscape:version="0.92.3 (2405546, 2018-03-11)"
   sodipodi:docname="LOGO-FE-Pantone.svg">
  <defs
     id="defs2" />
  <sodipodi:namedview
     id="base"
     pagecolor="#ffffff"
     bordercolor="#666666"
     borderopacity="1.0"
     inkscape:pageopacity="0.0"
     inkscape:pageshadow="2"
     inkscape:zoom="0.98994949"
     inkscape:cx="389.26921"
     inkscape:cy="23.600139"
     inkscape:document-units="mm"
     inkscape:current-layer="layer1"
     showgrid="false"
     inkscape:window-width="1920"
     inkscape:window-height="1052"
     inkscape:window-x="1920"
     inkscape:window-y="0"
     inkscape:window-maximized="1"
     units="px" />
  <metadata
     id="metadata5">
    <rdf:RDF>
      <cc:Work
         rdf:about="">
        <dc:format>image/svg+xml</dc:format>
        <dc:type
           rdf:resource="http://purl.org/dc/dcmitype/StillImage" />
        <dc:title></dc:title>
      </cc:Work>
    </rdf:RDF>
  </metadata>
  <g
     inkscape:label="Layer 1"
     inkscape:groupmode="layer"
     id="layer1"
     transform="translate(0,-270.54165)">
    <g
       id="g172"
       transform="matrix(0.51386708,0,0,0.22000477,-13.059307,264.45195)">
	<rect
   id="rect10"
   height="109.2"
   width="0.5"
   y="30.700001"
   x="365.39999"
   style="fill:#bdbdbc" />

	<rect
   id="rect12"
   height="109.2"
   width="0.5"
   y="30.700001"
   x="371"
   style="fill:#bdbdbc" />

	<rect
   id="rect14"
   height="109.2"
   width="0.5"
   y="30.700001"
   x="376.70001"
   style="fill:#bdbdbc" />

	<rect
   id="rect16"
   height="109.2"
   width="0.5"
   y="30.700001"
   x="382.39999"
   style="fill:#bdbdbc" />

	<rect
   id="rect18"
   height="109.2"
   width="0.5"
   y="30.700001"
   x="388"
   style="fill:#bdbdbc" />

	<rect
   id="rect20"
   height="109.2"
   width="0.5"
   y="30.700001"
   x="393.70001"
   style="fill:#bdbdbc" />

	<rect
   id="rect22"
   height="109.2"
   width="0.5"
   y="30.700001"
   x="399.29999"
   style="fill:#bdbdbc" />

	<rect
   id="rect24"
   height="109.2"
   width="0.5"
   y="30.700001"
   x="405"
   style="fill:#bdbdbc" />

	<rect
   id="rect26"
   height="109.2"
   width="0.5"
   y="30.700001"
   x="410.60001"
   style="fill:#bdbdbc" />

	<rect
   id="rect28"
   height="109.2"
   width="0.5"
   y="30.700001"
   x="416.29999"
   style="fill:#bdbdbc" />

	<rect
   id="rect30"
   height="109.2"
   width="0.5"
   y="30.700001"
   x="421.89999"
   style="fill:#bdbdbc" />

	<rect
   id="rect32"
   height="109.2"
   width="0.5"
   y="30.700001"
   x="427.60001"
   style="fill:#bdbdbc" />

	<g
   id="g82">
		<path
   id="path34"
   d="m 368.8,90.9 c 0,1.7 -1.4,3.2 -3.2,3.2 -1.8,0 -3.2,-1.4 -3.2,-3.2 0,-1.7 1.4,-3.2 3.2,-3.2 1.8,0 3.2,1.4 3.2,3.2"
   inkscape:connector-curvature="0"
   style="fill:#004289" />

		<path
   id="path36"
   d="m 371.3,83.5 c 1.7,0 3.2,1.4 3.2,3.2 0,1.8 -1.4,3.2 -3.2,3.2 -1.7,0 -3.2,-1.4 -3.2,-3.2 0,-1.8 1.4,-3.2 3.2,-3.2"
   inkscape:connector-curvature="0"
   style="fill:#004289" />

		<path
   id="path38"
   d="m 376.9,79.2 c 1.7,0 3.2,1.4 3.2,3.2 0,1.8 -1.4,3.2 -3.2,3.2 -1.7,0 -3.2,-1.4 -3.2,-3.2 0,-1.8 1.5,-3.2 3.2,-3.2"
   inkscape:connector-curvature="0"
   style="fill:#004289" />

		<path
   id="path40"
   d="m 382.6,75 c 1.7,0 3.2,1.4 3.2,3.2 0,1.8 -1.4,3.2 -3.2,3.2 -1.7,0 -3.2,-1.4 -3.2,-3.2 0,-1.8 1.5,-3.2 3.2,-3.2"
   inkscape:connector-curvature="0"
   style="fill:#004289" />

		<path
   id="path42"
   d="m 388.3,70.8 c 1.7,0 3.2,1.4 3.2,3.2 0,1.7 -1.4,3.2 -3.2,3.2 -1.7,0 -3.2,-1.4 -3.2,-3.2 0,-1.8 1.4,-3.2 3.2,-3.2"
   inkscape:connector-curvature="0"
   style="fill:#004289" />

		<path
   id="path44"
   d="m 393.9,66.6 c 1.7,0 3.2,1.4 3.2,3.2 0,1.8 -1.4,3.2 -3.2,3.2 -1.7,0 -3.2,-1.4 -3.2,-3.2 0,-1.8 1.5,-3.2 3.2,-3.2"
   inkscape:connector-curvature="0"
   style="fill:#004289" />

		<path
   id="path46"
   d="m 399.6,62.3 c 1.7,0 3.2,1.4 3.2,3.2 0,1.8 -1.4,3.2 -3.2,3.2 -1.7,0 -3.2,-1.4 -3.2,-3.2 0,-1.8 1.4,-3.2 3.2,-3.2"
   inkscape:connector-curvature="0"
   style="fill:#004289" />

		<path
   id="path48"
   d="m 405.2,58.1 c 1.7,0 3.2,1.4 3.2,3.2 0,1.8 -1.4,3.2 -3.2,3.2 -1.7,0 -3.2,-1.4 -3.2,-3.2 0,-1.8 1.5,-3.2 3.2,-3.2"
   inkscape:connector-curvature="0"
   style="fill:#004289" />

		<path
   id="path50"
   d="m 410.9,53.9 c 1.7,0 3.2,1.4 3.2,3.2 0,1.7 -1.4,3.2 -3.2,3.2 -1.7,0 -3.2,-1.4 -3.2,-3.2 0,-1.8 1.4,-3.2 3.2,-3.2"
   inkscape:connector-curvature="0"
   style="fill:#004289" />

		<path
   id="path52"
   d="m 416.5,49.6 c 1.7,0 3.2,1.4 3.2,3.2 0,1.8 -1.4,3.2 -3.2,3.2 -1.7,0 -3.2,-1.4 -3.2,-3.2 0,-1.8 1.5,-3.2 3.2,-3.2"
   inkscape:connector-curvature="0"
   style="fill:#004289" />

		<path
   id="path54"
   d="m 422.2,45.4 c 1.7,0 3.2,1.4 3.2,3.2 0,1.8 -1.4,3.2 -3.2,3.2 -1.7,0 -3.2,-1.4 -3.2,-3.2 0,-1.8 1.4,-3.2 3.2,-3.2"
   inkscape:connector-curvature="0"
   style="fill:#004289" />

		<path
   id="path56"
   d="m 431,44.4 c 0,1.7 -1.4,3.2 -3.2,3.2 -1.8,0 -3.2,-1.4 -3.2,-3.2 0,-1.7 1.4,-3.2 3.2,-3.2 1.8,0 3.2,1.4 3.2,3.2"
   inkscape:connector-curvature="0"
   style="fill:#004289" />

		<path
   id="path58"
   d="m 368.8,77.9 c 0,1.7 -1.4,3.2 -3.2,3.2 -1.8,0 -3.2,-1.4 -3.2,-3.2 0,-1.7 1.4,-3.2 3.2,-3.2 1.8,0 3.2,1.4 3.2,3.2"
   inkscape:connector-curvature="0"
   style="fill:#dadada" />

		<path
   id="path60"
   d="m 371.3,70.5 c 1.7,0 3.2,1.4 3.2,3.2 0,1.8 -1.4,3.2 -3.2,3.2 -1.7,0 -3.2,-1.4 -3.2,-3.2 0,-1.8 1.4,-3.2 3.2,-3.2"
   inkscape:connector-curvature="0"
   style="fill:#cbcbcb" />

		<path
   id="path62"
   d="m 376.9,66.2 c 1.7,0 3.2,1.4 3.2,3.2 0,1.8 -1.4,3.2 -3.2,3.2 -1.7,0 -3.2,-1.4 -3.2,-3.2 0,-1.8 1.5,-3.2 3.2,-3.2"
   inkscape:connector-curvature="0"
   style="fill:#bdbdbd" />

		<path
   id="path64"
   d="m 382.6,62 c 1.7,0 3.2,1.4 3.2,3.2 0,1.8 -1.4,3.2 -3.2,3.2 -1.7,0 -3.2,-1.4 -3.2,-3.2 0,-1.8 1.5,-3.2 3.2,-3.2"
   inkscape:connector-curvature="0"
   style="fill:#aeaeae" />

		<path
   id="path66"
   d="m 388.3,57.8 c 1.7,0 3.2,1.4 3.2,3.2 0,1.7 -1.4,3.2 -3.2,3.2 -1.7,0 -3.2,-1.4 -3.2,-3.2 0,-1.8 1.4,-3.2 3.2,-3.2"
   inkscape:connector-curvature="0"
   style="fill:#9f9f9f" />

		<path
   id="path68"
   d="m 393.9,53.6 c 1.7,0 3.2,1.4 3.2,3.2 0,1.8 -1.4,3.2 -3.2,3.2 -1.7,0 -3.2,-1.4 -3.2,-3.2 0,-1.8 1.5,-3.2 3.2,-3.2"
   inkscape:connector-curvature="0"
   style="fill:#8f8f8e" />

		<path
   id="path70"
   d="m 399.6,49.3 c 1.7,0 3.2,1.4 3.2,3.2 0,1.8 -1.4,3.2 -3.2,3.2 -1.7,0 -3.2,-1.4 -3.2,-3.2 0,-1.8 1.4,-3.2 3.2,-3.2"
   inkscape:connector-curvature="0"
   style="fill:#7f7f7e" />

		<path
   id="path72"
   d="m 405.2,45.1 c 1.7,0 3.2,1.4 3.2,3.2 0,1.8 -1.4,3.2 -3.2,3.2 -1.7,0 -3.2,-1.4 -3.2,-3.2 0,-1.8 1.5,-3.2 3.2,-3.2"
   inkscape:connector-curvature="0"
   style="fill:#6d6d6c" />

		<path
   id="path74"
   d="m 410.9,40.9 c 1.7,0 3.2,1.4 3.2,3.2 0,1.7 -1.4,3.2 -3.2,3.2 -1.7,0 -3.2,-1.4 -3.2,-3.2 0,-1.8 1.4,-3.2 3.2,-3.2"
   inkscape:connector-curvature="0"
   style="fill:#5c5c5b" />

		<path
   id="path76"
   d="m 416.5,36.6 c 1.7,0 3.2,1.4 3.2,3.2 0,1.8 -1.4,3.2 -3.2,3.2 -1.7,0 -3.2,-1.4 -3.2,-3.2 0,-1.8 1.5,-3.2 3.2,-3.2"
   inkscape:connector-curvature="0"
   style="fill:#494848" />

		<path
   id="path78"
   d="m 422.2,32.4 c 1.7,0 3.2,1.4 3.2,3.2 0,1.8 -1.4,3.2 -3.2,3.2 -1.7,0 -3.2,-1.4 -3.2,-3.2 0,-1.8 1.4,-3.2 3.2,-3.2"
   inkscape:connector-curvature="0"
   style="fill:#353534" />

		<path
   id="path80"
   d="m 431,31.4 c 0,1.7 -1.4,3.2 -3.2,3.2 -1.8,0 -3.2,-1.4 -3.2,-3.2 0,-1.7 1.4,-3.2 3.2,-3.2 1.8,0 3.2,1.4 3.2,3.2"
   inkscape:connector-curvature="0" />

	</g>

	<polygon
   id="polygon84"
   points="49.6,57.9 34.9,57.9 34.9,69.4 49.1,69.4 49.1,74.1 34.9,74.1 34.9,94.1 29.8,94.1 29.8,53.2 49.6,53.2 "
   style="fill:#004289" />

	<path
   id="path86"
   d="M 83.7,94.1 H 77.5 L 65.5,76.8 H 63.4 V 94.1 H 58.3 V 53.2 h 6.2 c 1.8,0 3.6,0.1 5.5,0.3 1.9,0.2 3.6,0.7 5.3,1.6 1.7,1 3.1,2.4 4,4.2 0.9,1.8 1.4,3.6 1.4,5.6 0,1.5 -0.2,2.9 -0.7,4.2 -0.5,1.3 -1.1,2.5 -2,3.5 -0.9,1 -1.9,1.9 -3.1,2.5 -1.2,0.7 -2.6,1.1 -4,1.3 z M 63.4,72.6 H 65 c 1.3,0 2.6,-0.1 3.9,-0.2 1.3,-0.2 2.4,-0.5 3.5,-1.1 1,-0.5 1.9,-1.3 2.5,-2.3 0.6,-1 1,-2.3 1,-3.9 0,-1.6 -0.3,-2.9 -1,-3.8 -0.7,-1 -1.6,-1.7 -2.6,-2.2 -1.1,-0.5 -2.3,-0.9 -3.6,-1 -1.3,-0.2 -2.6,-0.2 -3.9,-0.2 h -1.4 z"
   inkscape:connector-curvature="0"
   style="fill:#004289" />

	<rect
   id="rect88"
   height="40.900002"
   width="5.0999999"
   y="53.200001"
   x="90.300003"
   style="fill:#004289" />

	<polygon
   id="polygon90"
   points="110.8,57.9 110.8,69.3 127.2,69.3 127.2,74 110.8,74 110.8,89.4 127.7,89.4 127.7,94.1 105.7,94.1 105.7,53.2 127.7,53.2 127.7,57.9 "
   style="fill:#004289" />

	<path
   id="path92"
   d="m 136.2,53.2 h 8.5 c 3.1,0 6.1,0.4 8.9,1.2 2.8,0.8 5.2,2.1 7.3,3.8 2.1,1.7 3.7,3.8 5,6.3 1.2,2.5 1.8,5.5 1.8,8.9 0,3.5 -0.6,6.5 -1.8,9.1 -1.2,2.6 -2.8,4.8 -4.9,6.5 -2.1,1.7 -4.5,3 -7.3,3.8 -2.8,0.8 -5.8,1.3 -9.1,1.3 h -8.3 V 53.2 Z m 5.1,36.2 h 1.8 c 2.6,0 5.1,-0.3 7.4,-0.8 2.3,-0.5 4.4,-1.4 6.2,-2.6 1.8,-1.2 3.2,-2.9 4.2,-4.9 1,-2 1.6,-4.5 1.6,-7.5 0,-3 -0.5,-5.5 -1.6,-7.5 -1,-2 -2.5,-3.6 -4.2,-4.9 -1.8,-1.2 -3.8,-2.1 -6.2,-2.6 -2.3,-0.5 -4.8,-0.8 -7.4,-0.8 h -1.8 z"
   inkscape:connector-curvature="0"
   style="fill:#004289" />

	<polygon
   id="polygon94"
   points="172.2,94.1 180.6,51.5 194.6,83.7 208.6,51.5 217,94.1 211.7,94.1 207,67.1 206.8,67.1 194.6,95 182.3,67.1 182.2,67.1 177.5,94.1 "
   style="fill:#004289" />

	<path
   id="path96"
   d="m 230,83.9 -4.7,10.2 h -5.5 l 19.5,-42.6 19.5,42.6 h -5.5 l -4.7,-10.2 z m 9.4,-21.2 -7.3,16.5 h 14.5 z"
   inkscape:connector-curvature="0"
   style="fill:#004289" />

	<polygon
   id="polygon98"
   points="264.6,94.1 264.6,51.3 295.2,83.4 295.2,53.2 300.3,53.2 300.3,95.8 269.7,63.7 269.7,94.1 "
   style="fill:#004289" />

	<polygon
   id="polygon100"
   points="309.8,94.1 309.8,51.3 340.5,83.4 340.5,53.2 345.6,53.2 345.6,95.8 314.9,63.7 314.9,94.1 "
   style="fill:#004289" />

	<rect
   id="rect102"
   height="9.1000004"
   width="26.1"
   y="104.9"
   x="376.70001"
   style="fill:#004289" />

	<polygon
   id="polygon104"
   points="385,119.1 376.7,119.1 376.7,128.2 376.7,142.5 385,142.5 385,128.2 402.8,128.2 402.8,119.1 "
   style="fill:#004289" />

	<rect
   id="rect106"
   height="9.1000004"
   width="26.200001"
   y="90.199997"
   x="405"
   style="fill:#004289" />

	<polygon
   id="polygon108"
   points="405,128.2 414.1,128.2 431.1,128.2 431.1,119.1 414.1,119.1 414.1,114 431.1,114 431.1,104.9 414.1,104.9 405,104.9 405,114 405,119.1 "
   style="fill:#004289" />

	<g
   id="g170">
		<path
   id="path110"
   d="m 30.2,115.2 v -10.4 h 5.1 v 0.9 h -4.2 v 3.2 h 4.2 v 0.9 h -4.2 v 4.5 h 4.2 v 0.9 z"
   inkscape:connector-curvature="0" />

		<path
   id="path112"
   d="m 39.8,115.2 v -10.4 h 0.9 v 9.5 h 3.6 v 0.9 z"
   inkscape:connector-curvature="0" />

		<path
   id="path114"
   d="M 47.9,115.2 V 104.8 H 53 v 0.9 h -4.2 v 3.2 H 53 v 0.9 h -4.2 v 4.5 H 53 v 0.9 z"
   inkscape:connector-curvature="0" />

		<path
   id="path116"
   d="m 57.4,115.2 v -10.4 h 0.9 v 4.9 l 4.7,-4.9 h 1.2 l -4.9,5 5.1,5.4 H 63 l -4.8,-5.3 v 5.3 z"
   inkscape:connector-curvature="0" />

		<path
   id="path118"
   d="m 69.1,115.2 v -9.5 h -2.9 v -0.9 H 73 v 0.9 h -2.9 v 9.5 z"
   inkscape:connector-curvature="0" />

		<path
   id="path120"
   d="m 82.9,115.2 h -1.1 l -3.6,-4.9 h -0.6 v 4.9 h -0.9 v -10.4 h 1.9 c 1.1,0 2,0.2 2.5,0.7 0.6,0.5 0.8,1.2 0.8,2.1 0,0.8 -0.2,1.4 -0.7,1.9 -0.5,0.5 -1.1,0.7 -2,0.7 z m -5.3,-9.5 v 3.8 h 0.9 c 0.9,0 1.5,-0.1 1.8,-0.4 0.3,-0.3 0.5,-0.8 0.5,-1.4 0,-0.7 -0.2,-1.2 -0.5,-1.5 -0.3,-0.3 -1,-0.5 -1.8,-0.5 z"
   inkscape:connector-curvature="0" />

		<path
   id="path122"
   d="m 97,110.1 c 0,0.7 -0.1,1.4 -0.4,2.1 -0.3,0.7 -0.7,1.2 -1.2,1.8 -0.5,0.5 -1.1,0.9 -1.8,1.2 -0.7,0.3 -1.4,0.4 -2.1,0.4 -0.7,0 -1.5,-0.1 -2.1,-0.4 -0.6,-0.3 -1.3,-0.7 -1.8,-1.2 -0.5,-0.5 -0.9,-1.1 -1.2,-1.8 -0.3,-0.7 -0.4,-1.3 -0.4,-2.1 0,-0.7 0.1,-1.4 0.4,-2.1 0.3,-0.7 0.7,-1.2 1.2,-1.8 0.5,-0.5 1.1,-0.9 1.8,-1.2 0.7,-0.3 1.4,-0.4 2.1,-0.4 0.8,0 1.5,0.1 2.1,0.4 0.7,0.3 1.3,0.7 1.8,1.2 0.5,0.5 0.9,1.1 1.2,1.8 0.2,0.6 0.4,1.3 0.4,2.1 z m -5.6,4.6 c 0.6,0 1.2,-0.1 1.7,-0.3 0.5,-0.2 1,-0.6 1.5,-1 0.4,-0.4 0.8,-0.9 1,-1.5 0.2,-0.6 0.3,-1.1 0.3,-1.8 0,-0.6 -0.1,-1.2 -0.3,-1.8 -0.2,-0.6 -0.6,-1.1 -1,-1.5 -0.4,-0.4 -0.9,-0.8 -1.5,-1 -0.6,-0.2 -1.1,-0.3 -1.8,-0.3 -0.6,0 -1.2,0.1 -1.7,0.3 -0.5,0.2 -1,0.6 -1.5,1 -0.4,0.4 -0.8,0.9 -1,1.5 -0.2,0.5 -0.3,1.1 -0.3,1.8 0,0.6 0.1,1.2 0.3,1.8 0.2,0.6 0.6,1.1 1,1.5 0.4,0.4 0.9,0.8 1.5,1 0.6,0.1 1.2,0.3 1.8,0.3 z"
   inkscape:connector-curvature="0" />

		<path
   id="path124"
   d="m 102.2,115.2 v -9.5 h -2.9 v -0.9 h 6.7 v 0.9 h -2.9 v 9.5 z"
   inkscape:connector-curvature="0" />

		<path
   id="path126"
   d="m 109.7,115.2 v -10.4 h 5.1 v 0.9 h -4.2 v 3.2 h 4.2 v 0.9 h -4.2 v 4.5 h 4.2 v 0.9 z"
   inkscape:connector-curvature="0" />

		<path
   id="path128"
   d="m 127.6,106.8 c -0.5,-0.4 -1,-0.8 -1.6,-1 -0.5,-0.2 -1.1,-0.3 -1.7,-0.3 -1.3,0 -2.4,0.4 -3.3,1.3 -0.9,0.9 -1.3,2 -1.3,3.3 0,0.7 0.1,1.3 0.3,1.8 0.2,0.5 0.5,1 0.9,1.5 0.4,0.4 0.9,0.7 1.4,0.9 0.5,0.2 1.1,0.3 1.7,0.3 0.6,0 1.2,-0.1 1.7,-0.3 0.6,-0.2 1.1,-0.5 1.6,-0.9 v 1.1 c -0.5,0.3 -1,0.6 -1.6,0.7 -0.6,0.2 -1.1,0.3 -1.7,0.3 -0.8,0 -1.5,-0.1 -2.2,-0.4 -0.7,-0.3 -1.3,-0.6 -1.8,-1.1 -0.5,-0.5 -0.9,-1.1 -1.1,-1.7 -0.3,-0.7 -0.4,-1.4 -0.4,-2.2 0,-0.8 0.1,-1.5 0.4,-2.2 0.3,-0.7 0.6,-1.2 1.2,-1.7 0.5,-0.5 1.1,-0.8 1.8,-1.1 0.7,-0.3 1.4,-0.4 2.1,-0.4 0.7,0 1.3,0.1 1.8,0.3 0.5,0.2 1.1,0.5 1.5,0.8 z"
   inkscape:connector-curvature="0" />

		<path
   id="path130"
   d="m 131.7,115.2 v -10.4 h 0.9 v 4.2 h 5.6 v -4.2 h 0.9 v 10.4 h -0.9 v -5.4 h -5.6 v 5.4 z"
   inkscape:connector-curvature="0" />

		<path
   id="path132"
   d="m 143.9,115.2 v -10.8 l 7.3,8.7 v -8.2 h 0.9 v 10.7 l -7.3,-8.7 v 8.4 h -0.9 z"
   inkscape:connector-curvature="0" />

		<path
   id="path134"
   d="m 156.8,115.2 v -10.4 h 0.9 v 10.4 z"
   inkscape:connector-curvature="0" />

		<path
   id="path136"
   d="m 162.4,115.2 v -10.4 h 0.9 v 4.9 l 4.7,-4.9 h 1.2 l -4.9,5 5.1,5.4 H 168 l -4.8,-5.3 v 5.3 z"
   inkscape:connector-curvature="0" />

		<path
   id="path138"
   d="m 179.2,110.1 c 0,-0.2 0.1,-0.4 0.2,-0.5 0.1,-0.1 0.3,-0.2 0.5,-0.2 0.2,0 0.4,0.1 0.5,0.2 0.1,0.1 0.2,0.3 0.2,0.5 0,0.2 -0.1,0.4 -0.2,0.5 -0.1,0.1 -0.3,0.2 -0.5,0.2 -0.2,0 -0.4,-0.1 -0.5,-0.2 -0.1,-0.1 -0.2,-0.3 -0.2,-0.5 z"
   inkscape:connector-curvature="0" />

		<path
   id="path140"
   d="m 190.3,115.2 4.6,-10.8 4.4,10.8 h -1 l -1.3,-3.5 h -4.2 l -1.4,3.5 z m 2.6,-4.3 h 3.6 l -1.8,-4.5 z"
   inkscape:connector-curvature="0" />

		<path
   id="path142"
   d="m 202.2,104.9 h 0.9 v 6.8 c 0,1 0.2,1.8 0.7,2.3 0.5,0.5 1.2,0.7 2.1,0.7 0.9,0 1.7,-0.2 2.1,-0.7 0.5,-0.5 0.7,-1.3 0.7,-2.3 v -6.8 h 0.9 v 6.5 c 0,1.4 -0.3,2.4 -0.9,3.1 -0.6,0.7 -1.6,1 -2.8,1 -1.3,0 -2.2,-0.3 -2.8,-1 -0.6,-0.7 -0.9,-1.7 -0.9,-3.1 z"
   inkscape:connector-curvature="0" />

		<path
   id="path144"
   d="m 216.2,115.2 v -9.5 h -2.9 v -0.9 h 6.7 v 0.9 h -2.9 v 9.5 z"
   inkscape:connector-curvature="0" />

		<path
   id="path146"
   d="m 233.5,110.1 c 0,0.7 -0.1,1.4 -0.4,2.1 -0.3,0.7 -0.7,1.2 -1.2,1.8 -0.5,0.5 -1.1,0.9 -1.8,1.2 -0.7,0.3 -1.4,0.4 -2.1,0.4 -0.7,0 -1.5,-0.1 -2.1,-0.4 -0.6,-0.3 -1.3,-0.7 -1.8,-1.2 -0.5,-0.5 -0.9,-1.1 -1.2,-1.8 -0.3,-0.7 -0.4,-1.3 -0.4,-2.1 0,-0.7 0.1,-1.4 0.4,-2.1 0.3,-0.7 0.7,-1.2 1.2,-1.8 0.5,-0.5 1.1,-0.9 1.8,-1.2 0.7,-0.3 1.4,-0.4 2.1,-0.4 0.8,0 1.5,0.1 2.1,0.4 0.7,0.3 1.3,0.7 1.8,1.2 0.5,0.5 0.9,1.1 1.2,1.8 0.2,0.6 0.4,1.3 0.4,2.1 z m -5.6,4.6 c 0.6,0 1.2,-0.1 1.7,-0.3 0.5,-0.2 1,-0.6 1.5,-1 0.4,-0.4 0.8,-0.9 1,-1.5 0.2,-0.6 0.3,-1.1 0.3,-1.8 0,-0.6 -0.1,-1.2 -0.3,-1.8 -0.2,-0.6 -0.6,-1.1 -1,-1.5 -0.4,-0.4 -0.9,-0.8 -1.5,-1 -0.6,-0.2 -1.1,-0.3 -1.8,-0.3 -0.6,0 -1.2,0.1 -1.7,0.3 -0.5,0.2 -1,0.6 -1.5,1 -0.4,0.4 -0.8,0.9 -1,1.5 -0.2,0.5 -0.3,1.1 -0.3,1.8 0,0.6 0.1,1.2 0.3,1.8 0.2,0.6 0.6,1.1 1,1.5 0.4,0.4 0.9,0.8 1.5,1 0.6,0.1 1.2,0.3 1.8,0.3 z"
   inkscape:connector-curvature="0" />

		<path
   id="path148"
   d="m 242.4,115.6 -3.6,-8.3 -0.8,7.9 h -1 l 1.4,-10.8 4,9.2 4.1,-9.2 1.3,10.8 h -1 l -0.8,-7.9 z"
   inkscape:connector-curvature="0" />

		<path
   id="path150"
   d="m 250.5,115.2 4.6,-10.8 4.4,10.8 h -1 l -1.3,-3.5 H 253 l -1.4,3.5 z m 2.6,-4.3 h 3.6 l -1.8,-4.5 z"
   inkscape:connector-curvature="0" />

		<path
   id="path152"
   d="m 263.7,115.2 v -9.5 h -2.9 v -0.9 h 6.7 v 0.9 h -2.9 v 9.5 z"
   inkscape:connector-curvature="0" />

		<path
   id="path154"
   d="m 271.2,115.2 v -10.4 h 0.9 v 10.4 z"
   inkscape:connector-curvature="0" />

		<path
   id="path156"
   d="m 276,113.5 0.8,-0.4 c 0.2,0.5 0.4,0.9 0.8,1.2 0.4,0.3 0.8,0.4 1.3,0.4 0.7,0 1.2,-0.2 1.5,-0.6 0.4,-0.4 0.6,-0.9 0.6,-1.6 0,-0.5 -0.1,-0.9 -0.4,-1.2 -0.2,-0.3 -0.8,-0.7 -1.6,-1.1 -1,-0.6 -1.7,-1 -2.1,-1.5 -0.3,-0.4 -0.5,-0.9 -0.5,-1.5 0,-0.7 0.2,-1.3 0.7,-1.8 0.5,-0.5 1.1,-0.7 1.9,-0.7 0.5,0 1,0.1 1.4,0.3 0.4,0.2 0.7,0.5 0.9,1 l -0.7,0.4 c -0.2,-0.3 -0.4,-0.5 -0.6,-0.7 -0.3,-0.2 -0.6,-0.2 -1,-0.2 -0.5,0 -0.9,0.1 -1.2,0.4 -0.3,0.3 -0.5,0.7 -0.5,1.2 0,0.7 0.6,1.4 1.8,2 0.2,0.1 0.4,0.2 0.5,0.3 0.9,0.5 1.5,0.9 1.8,1.4 0.3,0.4 0.4,1 0.4,1.7 0,0.9 -0.3,1.7 -0.8,2.2 -0.5,0.5 -1.3,0.8 -2.2,0.8 -0.7,0 -1.3,-0.2 -1.7,-0.5 -0.5,-0.3 -0.8,-0.9 -1.1,-1.5 z"
   inkscape:connector-curvature="0" />

		<path
   id="path158"
   d="m 286.1,115.2 v -10.4 h 0.9 v 10.4 z"
   inkscape:connector-curvature="0" />

		<path
   id="path160"
   d="m 291.7,115.2 v -10.4 h 5.1 v 0.9 h -4.2 v 3.2 h 4.2 v 0.9 h -4.2 v 4.5 h 4.2 v 0.9 z"
   inkscape:connector-curvature="0" />

		<path
   id="path162"
   d="m 307.6,115.2 h -1.1 l -3.6,-4.9 h -0.6 v 4.9 h -0.9 v -10.4 h 1.9 c 1.1,0 2,0.2 2.5,0.7 0.6,0.5 0.8,1.2 0.8,2.1 0,0.8 -0.2,1.4 -0.7,1.9 -0.5,0.5 -1.1,0.7 -2,0.7 z m -5.4,-9.5 v 3.8 h 0.9 c 0.9,0 1.5,-0.1 1.8,-0.4 0.3,-0.3 0.5,-0.8 0.5,-1.4 0,-0.7 -0.2,-1.2 -0.5,-1.5 -0.4,-0.3 -1,-0.5 -1.8,-0.5 z"
   inkscape:connector-curvature="0" />

		<path
   id="path164"
   d="m 311,104.9 h 0.9 v 6.8 c 0,1 0.2,1.8 0.7,2.3 0.5,0.5 1.2,0.7 2.1,0.7 0.9,0 1.7,-0.2 2.1,-0.7 0.5,-0.5 0.7,-1.3 0.7,-2.3 v -6.8 h 0.9 v 6.5 c 0,1.4 -0.3,2.4 -0.9,3.1 -0.6,0.7 -1.6,1 -2.8,1 -1.3,0 -2.2,-0.3 -2.8,-1 -0.6,-0.7 -0.9,-1.7 -0.9,-3.1 z"
   inkscape:connector-curvature="0" />

		<path
   id="path166"
   d="m 323.2,115.2 v -10.8 l 7.3,8.7 v -8.2 h 0.9 v 10.7 l -7.3,-8.7 v 8.4 h -0.9 z"
   inkscape:connector-curvature="0" />

		<path
   id="path168"
   d="m 344.6,107.5 c -0.4,-0.7 -0.9,-1.1 -1.5,-1.5 -0.6,-0.3 -1.3,-0.5 -2.1,-0.5 -1.3,0 -2.3,0.4 -3.1,1.3 -0.8,0.9 -1.2,2 -1.2,3.4 0,0.6 0.1,1.2 0.3,1.7 0.2,0.5 0.5,1 0.9,1.5 0.4,0.4 0.9,0.7 1.4,0.9 0.5,0.2 1.1,0.3 1.7,0.3 1.2,0 2.1,-0.3 2.8,-1 0.7,-0.7 1.1,-1.6 1.1,-2.7 h -3.6 v -0.8 h 4.6 v 0.1 c 0,1.7 -0.5,2.9 -1.4,3.9 -0.9,1 -2.1,1.4 -3.7,1.4 -1.6,0 -2.8,-0.5 -3.8,-1.5 -1,-1 -1.5,-2.3 -1.5,-3.9 0,-0.7 0.1,-1.5 0.4,-2.1 0.3,-0.6 0.6,-1.2 1.1,-1.7 0.5,-0.5 1.1,-0.9 1.7,-1.2 0.6,-0.3 1.3,-0.4 2.1,-0.4 1.1,0 2,0.2 2.7,0.6 0.8,0.4 1.3,0.9 1.7,1.7 z"
   inkscape:connector-curvature="0" />

	</g>

</g>
  </g>
</svg>
